<svg width="124" height="60" viewBox="0 0 124 60" fill="none" xmlns="http://www.w3.org/2000/svg">
<path d="M5.59157 0.0187798C1.57235 0.0442924 0.304458 0.0825615 0.228384 0.210125C0.177669 0.286663 0.126953 10.377 0.126953 22.6231C0.126953 39.7805 0.16499 44.9341 0.2791 45.0489C0.507321 45.2785 3.72777 45.2657 3.91795 45.0361C4.01938 44.9086 4.0701 39.2575 4.08278 24.3963L4.12081 3.93499L7.98788 3.89672C10.1179 3.88397 11.931 3.8457 12.0198 3.80743C12.1339 3.76916 12.1719 3.27166 12.1719 1.95775C12.1719 0.643841 12.1339 0.146343 12.0198 0.108074C11.7155 -0.00673294 10.828 -0.0194893 5.59157 0.0187798Z" fill="#FBF9F8"/>
<path d="M14.4793 0.198547C14.3652 0.313354 14.3271 3.47694 14.3271 13.631C14.3271 24.9715 14.3525 27.0125 14.5173 27.6376C15.1513 30.074 16.9136 31.7579 19.348 32.2681C20.3243 32.4722 20.7554 32.4467 22.2134 32.1151L22.5558 32.0385V35.2021C22.5684 39.8199 22.4543 40.3812 21.4147 40.9808C21.0216 41.2104 20.73 41.2486 19.5001 41.2486C18.5492 41.2486 18.004 41.2997 17.9026 41.4017C17.6871 41.6186 17.6871 44.8332 17.9026 45.0501C18.1689 45.3179 21.2498 45.2542 22.2008 44.948C23.5954 44.5143 24.6985 43.6596 25.548 42.3329C26.4228 40.968 26.3721 42.4477 26.3721 20.3026C26.3721 9.29386 26.3468 0.22406 26.3087 0.160278C26.1946 -0.0183105 22.8981 0.0199585 22.7206 0.198547C22.6065 0.313354 22.5684 3.43867 22.5684 13.4907C22.5684 26.5405 22.5684 26.6298 22.3022 27.1783C21.9345 27.9565 21.4147 28.2754 20.4764 28.3392C19.8425 28.3774 19.6523 28.3392 19.2846 28.084C19.0437 27.931 18.7267 27.6248 18.5873 27.4335C18.321 27.0763 18.321 27.038 18.283 13.7331C18.2576 4.22957 18.2069 0.338867 18.1181 0.211304C17.928 -0.0183105 14.7075 -0.0310669 14.4793 0.198547Z" fill="#FBF9F8"/>
<path d="M30.5437 0.2617C30.3916 0.427532 30.3662 3.79522 30.3409 20.825L30.3028 41.1842L29.7069 41.2225C29.3773 41.248 29.0349 41.3246 28.9462 41.4011C28.718 41.5924 28.7053 46.9884 28.9335 47.218C29.0349 47.3201 29.6055 47.3711 30.6832 47.3711C32.6484 47.3711 32.7118 47.3328 32.7118 46.0572V45.2025H36.4521H40.1924V46.0699C40.1924 47.3201 40.2685 47.3711 42.1449 47.3711C42.9564 47.3711 43.7425 47.3073 43.882 47.2435C44.1102 47.116 44.1229 46.9501 44.1229 44.3351C44.1229 42.3451 44.0848 41.5159 43.9707 41.4011C43.882 41.3118 43.5143 41.248 43.1466 41.248H42.4746V20.7995C42.4746 5.07086 42.4366 0.312725 42.3225 0.197918C42.2083 0.0831108 40.7249 0.0448418 36.4394 0.0448418C31.2664 0.0448418 30.6959 0.0703545 30.5437 0.2617ZM38.5441 22.6237V41.248H36.4648C34.6897 41.248 34.3728 41.2225 34.3094 41.0439C34.2713 40.9291 34.2333 32.5482 34.2333 22.4196V3.99932H36.3887H38.5441V22.6237Z" fill="#FBF9F8"/>
<path d="M47.4197 0.376507C47.3437 0.580608 47.293 8.10689 47.293 20.9781V41.248H46.6844C46.3547 41.248 46.0124 41.3118 45.9236 41.4011C45.8095 41.5159 45.7715 42.3451 45.7715 44.3351C45.7715 46.9501 45.7842 47.116 46.0124 47.2435C46.1519 47.3073 46.9379 47.3711 47.7748 47.3711C49.6259 47.3711 49.7019 47.3201 49.7019 46.0572V45.2025H53.4422H57.1825V46.0699C57.1825 47.3201 57.2586 47.3711 59.1351 47.3711C59.9465 47.3711 60.7326 47.3073 60.8721 47.2435C61.1003 47.116 61.113 46.9501 61.113 44.3351C61.113 42.3451 61.0749 41.5159 60.9608 41.4011C60.8721 41.3118 60.5044 41.248 60.1367 41.248H59.4647V20.7995C59.4647 5.07086 59.4267 0.312725 59.3126 0.197918C59.1985 0.0831108 57.7023 0.0448418 53.3535 0.0448418H47.5465L47.4197 0.376507ZM55.5343 22.6237V41.248H53.4549C51.6925 41.248 51.3629 41.2225 51.2995 41.0567C51.2615 40.9419 51.2234 32.5609 51.2234 22.4323V3.99932H53.3788H55.5343V22.6237Z" fill="#FBF9F8"/>
<path d="M64.0537 0.197987C63.8635 0.389336 63.8255 45.5215 64.0157 45.649C64.0791 45.6873 66.7543 45.7128 69.9367 45.7256C75.3126 45.7256 75.7563 45.7128 75.9085 45.5087C76.1621 45.1643 76.086 0.555168 75.8324 0.261772C75.6803 0.0704231 75.1097 0.0449104 69.9367 0.0449104C65.6512 0.0449104 64.1678 0.0831795 64.0537 0.197987ZM71.9907 22.9044L71.9527 41.8221H69.924H67.8954L67.8574 22.9044L67.832 3.9994H69.924H72.0161L71.9907 22.9044Z" fill="#FBF9F8"/>
<path d="M78.7363 6.3976C78.7363 11.1685 78.7744 12.7886 78.8885 12.9034C79.1167 13.133 82.3371 13.1202 82.5273 12.8906C82.6161 12.7758 82.6795 11.3088 82.6922 8.32382L82.7302 3.93562H90.9081H99.086L99.1494 8.46414L99.2128 12.9927H101.051H102.89L102.953 8.46414L103.016 3.93562L111.042 3.89735L119.055 3.87183V26.5272V49.1953L118.624 49.6801C118.383 49.948 118.142 50.3562 118.104 50.5858C118.066 50.8154 118.041 52.7033 118.066 54.7826L118.104 58.5585L118.421 59.0178C118.954 59.7959 119.461 60 120.944 60C121.743 60 122.39 59.9362 122.643 59.8214C123.176 59.6046 123.696 58.9795 123.873 58.3672C124.051 57.7294 124.038 51.2236 123.861 50.4965C123.785 50.1903 123.556 49.7949 123.353 49.5908L122.986 49.2336V24.6393V0.0449104H100.861H78.7363V6.3976Z" fill="#D28B4B"/>
<path d="M78.8631 16.3598C78.7744 16.5256 78.7363 21.3348 78.7363 31.0169C78.7363 44.8066 78.749 45.4316 78.9645 45.623C79.1547 45.8016 79.4844 45.8398 80.7142 45.8398C81.7412 45.8398 82.3118 45.7888 82.4513 45.674C82.6541 45.5337 82.6668 44.8576 82.6922 37.4844L82.7302 29.4479L82.9964 30.1495C84.3911 33.8361 86.9016 40.227 87.0537 40.4439C87.2312 40.7245 87.32 40.7373 88.8668 40.7373C90.2488 40.7373 90.515 40.699 90.6925 40.5077C90.794 40.3929 91.3392 39.1172 91.897 37.6757C94.306 31.4124 94.978 29.7158 95.0287 29.6647C95.0668 29.6265 95.0921 33.16 95.0921 37.5099C95.0921 45.0107 95.1048 45.4316 95.3204 45.623C95.5105 45.8016 95.8402 45.8398 97.0447 45.8398C97.8561 45.8398 98.6422 45.7761 98.7817 45.7123C99.0226 45.5847 99.0226 45.2786 99.0226 30.9914C99.0226 18.707 98.9972 16.3853 98.8451 16.2577C98.731 16.1557 98.097 16.1174 96.9179 16.1429L95.1555 16.1812L92.0365 25.5954C90.3122 30.7873 88.8795 34.9714 88.8541 34.9076C88.8161 34.8566 88.5498 34.0912 88.2709 33.211C87.6116 31.1445 82.7936 16.5256 82.7048 16.296C82.6541 16.1557 82.2611 16.1174 80.8157 16.1174C79.1547 16.1174 78.9899 16.1429 78.8631 16.3598Z" fill="#FBF9F8"/>
<path d="M103.207 16.2457C103.042 16.3477 103.016 18.1336 102.978 30.8262C102.953 43.0086 102.978 45.3175 103.13 45.5216C103.283 45.7385 103.46 45.764 104.969 45.7385C105.894 45.7257 106.693 45.6875 106.757 45.6492C106.833 45.5982 106.883 43.8378 106.883 41.1717V36.7835H109.039H111.194V41.1717C111.194 44.3991 111.232 45.5982 111.346 45.6619C111.524 45.7767 114.795 45.7767 114.985 45.6619C115.087 45.5982 115.125 41.3758 115.125 30.839V16.1181H109.267C105.793 16.1181 103.321 16.1691 103.207 16.2457ZM111.194 26.4508V32.829H109.039H106.883V26.4508V20.0726H109.039H111.194V26.4508Z" fill="#FBF9F8"/>
<path d="M55.7616 47.7284L54.8994 47.7667V48.2642V48.7744H56.4336H57.955L57.917 48.2386L57.879 47.7029L57.245 47.6901C56.9027 47.6901 56.2307 47.7029 55.7616 47.7284Z" fill="#FBF9F8"/>
<path d="M1.53415 49.1826C0.862166 49.2974 0.304294 49.7949 0.126789 50.42C0.0633946 50.6751 0 52.1166 0 53.6218C0 56.0455 0.0380368 56.4282 0.253578 56.9002C0.570551 57.6273 1.12842 57.959 2.00327 57.959C2.85276 57.959 3.47402 57.6783 3.80368 57.1298C4.04458 56.7471 4.05725 56.5048 4.05725 53.5453C4.05725 50.6241 4.0319 50.3307 3.80368 49.9607C3.39795 49.2846 2.57382 48.9912 1.53415 49.1826ZM2.59918 50.5858C2.67525 50.6496 2.72597 51.8232 2.72597 53.5708C2.72597 56.6833 2.72597 56.6833 2.00327 56.6833C1.78773 56.6833 1.61022 56.594 1.52147 56.441C1.4454 56.2879 1.39468 55.1143 1.39468 53.507C1.39468 50.9685 1.40736 50.8026 1.66094 50.5475C1.91452 50.2924 2.30756 50.3051 2.59918 50.5858Z" fill="#FBF9F8"/>
<path d="M18.7646 49.1564C18.08 49.2839 17.801 49.488 17.5094 50.0876C17.2685 50.5978 17.2432 50.853 17.2432 53.5701C17.2432 56.8357 17.3066 57.1164 18.118 57.6649C18.6632 58.0348 19.7663 58.0603 20.4002 57.7287C21.237 57.2694 21.3004 57.0015 21.3004 53.5573C21.3004 50.8147 21.2751 50.4448 21.0595 50.0493C20.6792 49.3094 19.7789 48.965 18.7646 49.1564ZM19.5761 50.4448C19.7409 50.5213 19.9184 50.7126 19.9565 50.8657C19.9945 51.006 20.0325 52.2179 20.0325 53.5573C20.0325 56.2362 19.9565 56.5933 19.3605 56.6571C18.6632 56.7464 18.6378 56.6571 18.6378 53.5446C18.6378 50.7509 18.6378 50.6999 18.9168 50.5085C19.2591 50.2662 19.1957 50.2662 19.5761 50.4448Z" fill="#FBF9F8"/>
<path d="M70.0509 49.1829C69.3409 49.336 68.8845 49.8208 68.707 50.6117C68.6182 51.0199 68.5802 52.2572 68.6182 53.9411C68.6562 56.9133 68.7323 57.2195 69.5184 57.717C70.1143 58.0997 71.4836 58.0104 71.9654 57.5767C72.4599 57.1174 72.6501 56.5434 72.6501 55.5356V54.6427H72.0162H71.3822V55.4591C71.3822 56.3648 71.2047 56.6837 70.6849 56.6837C70.0256 56.6837 69.9875 56.5051 69.9875 53.6094C69.9875 52.0021 70.0382 50.8285 70.1143 50.6754C70.2031 50.5096 70.3806 50.4331 70.6849 50.4331C71.2174 50.4331 71.3822 50.6882 71.3822 51.5429V52.1552L72.0162 52.1169L72.6501 52.0659V51.3515C72.6501 50.4969 72.2951 49.6294 71.864 49.3998C71.4329 49.1574 70.6215 49.0681 70.0509 49.1829Z" fill="#FBF9F8"/>
<path d="M8.64743 53.5197L8.68546 57.8951L9.35745 57.9334L10.0168 57.9717V56.5302C10.0294 55.4714 10.0675 55.025 10.2069 54.8464C10.3084 54.706 10.4098 54.6167 10.4352 54.655C10.4605 54.6805 10.7268 55.3694 11.0311 56.173C11.3354 56.9767 11.6397 57.7166 11.703 57.7931C11.8425 57.9844 13.0597 58.0227 13.0597 57.8314C13.0597 57.7676 12.6666 56.696 12.1722 55.4587C11.6904 54.2213 11.2846 53.1753 11.2846 53.1115C11.2846 53.0605 11.6904 52.1803 12.1722 51.147C12.6666 50.1265 13.0597 49.2591 13.0597 49.2208C13.0597 49.1825 12.7681 49.157 12.4131 49.157H11.7791L10.9043 50.9684L10.0294 52.7926V50.9684L10.0168 49.157H9.31941H8.62207L8.64743 53.5197Z" fill="#FBF9F8"/>
<path d="M25.8652 53.5587V57.9596H26.3597C27.2853 57.9596 27.2599 58.0106 27.2599 55.9569V54.1199L27.9826 54.1582L28.7053 54.1965L28.6926 55.8548C28.68 56.7605 28.6926 57.6152 28.7307 57.73C28.8194 58.0362 29.9859 58.0617 30.1 57.7683C30.2141 57.4621 30.1761 49.5021 30.062 49.3108C29.9986 49.196 29.7577 49.1577 29.3393 49.1832L28.718 49.2215L28.6926 50.8798C28.68 51.7855 28.6673 52.6274 28.6673 52.7295C28.6546 52.8953 28.5024 52.9336 27.9573 52.9336H27.2599V51.0457V49.1577H26.5626H25.8652V53.5587Z" fill="#FBF9F8"/>
<path d="M34.7402 53.5451V57.9333L35.4122 57.9078L36.0715 57.8951L36.1096 56.0071L36.1476 54.1319H36.8957H37.6564V56.0199V57.9078L38.1128 57.9333C39.1271 58.0099 39.0511 58.3415 39.0511 53.4814V49.1569H38.3537H37.6564V50.9939C37.6564 52.0144 37.6183 52.8691 37.5676 52.8946C37.5042 52.9201 37.1619 52.9201 36.8069 52.8818L36.1349 52.8308V50.9939V49.1569H35.4376H34.7402V53.5451Z" fill="#FBF9F8"/>
<path d="M43.6152 53.558V57.959L45.0099 57.908C47.2921 57.8059 47.6091 57.4615 47.6091 55.0888C47.6091 53.9407 47.5711 53.6091 47.3809 53.3284C47.0132 52.7671 46.43 52.4737 45.6819 52.4737H45.0099V50.8154V49.1571H44.3126H43.6152V53.558ZM46.151 53.9917C46.3412 54.3617 46.3158 56.2369 46.113 56.4155C46.0116 56.492 45.7326 56.5813 45.479 56.6196L45.0099 56.6961V55.2291V53.7494H45.5171C45.8848 53.7494 46.0496 53.8132 46.151 53.9917Z" fill="#FBF9F8"/>
<path d="M48.3066 53.5453V57.959H48.9279C49.4224 57.959 49.5745 57.908 49.6252 57.7294C49.6633 57.6146 49.6886 55.6501 49.6633 53.3667L49.6379 49.2208L48.9786 49.1826L48.3066 49.1443V53.5453Z" fill="#FBF9F8"/>
<path d="M54.291 53.5192L54.329 57.8947L54.9122 57.933C55.2799 57.9585 55.5462 57.9074 55.6223 57.8054C55.7364 57.6651 57.1311 52.639 57.2071 52.0905C57.2198 51.9885 57.2705 53.2514 57.3086 54.8969L57.372 57.8947H57.9425H58.5131L58.5511 53.5192L58.5765 49.1565H57.727H56.8648L56.5985 50.1388C56.4464 50.6873 56.1548 51.7589 55.9646 52.5242L55.5969 53.9147L55.5335 51.5675L55.4701 49.2203L54.8615 49.1821L54.2656 49.1438L54.291 53.5192Z" fill="#FBF9F8"/>
<path d="M77.1765 49.2589C77.075 49.412 77.0877 57.6271 77.1892 57.7929C77.2525 57.895 77.8231 57.9332 79.053 57.9205L80.828 57.895L80.866 57.2954L80.9041 56.6959L79.7883 56.6576L78.6726 56.6193L78.6092 55.5861C78.5204 54.0681 78.4824 54.1318 79.5094 54.1318H80.3842V53.494V52.8689L79.4714 52.8307L78.5585 52.7924L78.5838 51.6443L78.5965 50.4963L79.7503 50.458L80.9041 50.4197L80.866 49.8202L80.828 49.2206L79.0276 49.1823C78.0386 49.1696 77.2018 49.1951 77.1765 49.2589Z" fill="#FBF9F8"/>
<path d="M85.3291 53.5326V57.908L85.8489 57.9463C86.6731 57.9846 86.7238 57.8825 86.7238 56.1604V54.6424H87.3324C88.1311 54.6424 88.7524 54.298 89.0567 53.6984C89.2342 53.3157 89.2849 52.9458 89.2849 51.9253C89.2596 49.6419 88.7904 49.1571 86.559 49.1571H85.3291V53.5326ZM87.7508 50.7007C88.0044 50.9558 88.017 51.0578 87.9283 52.0784C87.8776 52.6779 87.7761 53.2137 87.6874 53.2647C87.6113 53.3157 87.3704 53.3668 87.1422 53.3668H86.7365L86.6984 51.9508C86.6731 51.1727 86.6857 50.5093 86.7111 50.4838C86.8633 50.3307 87.5226 50.471 87.7508 50.7007Z" fill="#FBF9F8"/>
<path d="M93.5703 53.5453V57.959L95.003 57.9207C96.664 57.8824 97.1077 57.7039 97.5008 56.9385C97.691 56.5685 97.7544 56.1858 97.7544 55.4715C97.7544 54.4255 97.5388 53.7239 97.1458 53.4815C96.8922 53.3284 96.8922 53.3157 97.2218 52.8819C97.6656 52.3079 97.767 51.0705 97.4374 50.2286C97.1331 49.4122 96.74 49.2464 95.003 49.1826L93.5703 49.1316V53.5453ZM95.9539 50.6368C96.1822 50.8026 96.2329 50.9557 96.2329 51.5808C96.2329 52.2058 96.1822 52.3589 95.9539 52.5248C95.8018 52.6396 95.5102 52.7289 95.32 52.7289H94.965V51.5808V50.4327H95.32C95.5102 50.4327 95.8018 50.522 95.9539 50.6368ZM96.1315 54.2214C96.309 54.3872 96.3597 54.6168 96.3597 55.3439C96.3597 55.8797 96.2963 56.3134 96.2075 56.4027C96.1188 56.492 95.8145 56.5558 95.5102 56.5558H94.965V55.2801V54.0045H95.4341C95.6877 54.0045 96.0047 54.0938 96.1315 54.2214Z" fill="#FBF9F8"/>
<path d="M102.191 53.5195V57.8949L102.813 57.9332C103.193 57.9459 103.472 57.9077 103.548 57.8056C103.624 57.7163 104.004 56.4024 104.398 54.8972C104.803 53.3919 105.146 52.0907 105.171 52.027C105.196 51.9504 105.222 53.2516 105.222 54.8972L105.234 57.9077H105.868L106.502 57.9204V53.545V49.1568H105.627H104.765L104.144 51.5422L103.523 53.9277L103.485 51.5422L103.459 49.1568H102.825H102.191V53.5195Z" fill="#FBF9F8"/>
<path d="M112.082 49.2459C111.98 49.2842 111.739 49.4628 111.549 49.6414C111.029 50.1261 110.915 50.9553 110.966 53.9786C111.017 56.9125 111.093 57.2314 111.866 57.7034C112.361 58.0096 113.451 58.0479 114.022 57.7672C114.732 57.4228 114.935 57.0018 114.973 55.7517L115.023 54.6419H114.377H113.73V55.42C113.73 56.3895 113.578 56.6829 113.096 56.6829C112.373 56.6829 112.335 56.5554 112.335 53.5704C112.335 50.7129 112.373 50.5471 112.931 50.3685C113.388 50.2409 113.73 50.6874 113.73 51.44V52.0651L114.313 52.1161C114.63 52.1416 114.909 52.1289 114.947 52.1034C114.973 52.0779 114.998 51.6952 114.998 51.2742C114.998 50.3813 114.63 49.5904 114.11 49.3225C113.793 49.1566 112.449 49.1184 112.082 49.2459Z" fill="#FBF9F8"/>
</svg>
