<svg width="150" height="150" viewBox="0 0 150 150" fill="none" xmlns="http://www.w3.org/2000/svg">
<circle cx="75" cy="75" r="73.5" stroke="#D28B4B" stroke-width="3"/>
<path d="M75.773 32.7061L111.758 42.302C112.195 42.4188 112.5 42.8152 112.5 43.2683V89.2889C112.5 91.295 111.497 93.1684 109.828 94.2812L75.5547 117.13C75.2188 117.354 74.7812 117.354 74.4453 117.13L40.1718 94.2812C38.5026 93.1684 37.5 91.295 37.5 89.2889V43.2683C37.5 42.8152 37.8046 42.4188 38.2423 42.302L74.227 32.7061C74.7335 32.5711 75.2665 32.5711 75.773 32.7061Z" stroke="#D28B4B" stroke-width="3" stroke-linecap="round"/>
<path d="M62.5 72.5L72.3232 82.3232C72.4209 82.4209 72.5791 82.4209 72.6768 82.3232L90 65" stroke="#D28B4B" stroke-width="3" stroke-linecap="round"/>
</svg>
