<svg width="150" height="150" viewBox="0 0 150 150" fill="none" xmlns="http://www.w3.org/2000/svg">
<circle cx="75" cy="75" r="73.5" stroke="#D28B4B" stroke-width="3"/>
<path fill-rule="evenodd" clip-rule="evenodd" d="M58.1964 113.393L58.1964 57.3291H85.9813C86.9059 57.3291 87.6562 56.6099 87.6562 55.723V36.6066C87.6562 35.7197 86.9059 35 85.9813 35L36.6755 35C35.7509 35 35.0005 35.7197 35.0005 36.6066L35.0005 113.393C35.0005 114.28 35.7509 115 36.6755 115L56.5214 115C57.446 115 58.1964 114.28 58.1964 113.393ZM84.3047 38.2129V54.1165H57.2066L40.7101 38.2129L84.3047 38.2129ZM38.3511 40.4941L38.3511 111.788L54.8477 112.012V106.711H50.694C49.7694 106.711 49.019 105.992 49.019 105.105C49.019 104.218 49.7694 103.498 50.694 103.498H54.8477V100.285H50.694C49.7694 100.285 49.019 99.5658 49.019 98.6789C49.019 97.792 49.7694 97.0723 50.694 97.0723H54.8477V93.8596H47.1437C46.2191 93.8596 45.4687 93.1399 45.4687 92.2531C45.4687 91.3667 46.2191 90.647 47.1437 90.647H54.8477L54.8477 87.4338H50.694C49.7694 87.4338 49.019 86.7141 49.019 85.8278C49.019 84.9409 49.7694 84.2212 50.694 84.2212H54.8477V81.0085H50.694C49.7694 81.0085 49.019 80.2888 49.019 79.4019C49.019 78.5151 49.7694 77.7953 50.694 77.7953H54.8477V74.5827H47.1437C46.2191 74.5827 45.4687 73.863 45.4687 72.9761C45.4687 72.0892 46.2191 71.37 47.1437 71.37H54.8477V68.1569H50.694C49.7694 68.1569 49.019 67.4371 49.019 66.5503C49.019 65.6639 49.7694 64.9442 50.694 64.9442H54.8477V61.731H50.694C49.7694 61.731 49.019 61.0118 49.019 60.125C49.019 59.2381 49.7694 58.5184 50.694 58.5184H54.8477V56.3178L38.3511 40.4941Z" fill="#D28B4B"/>
<path fill-rule="evenodd" clip-rule="evenodd" d="M67.0003 79.6127L67.0003 79.6169L67.0003 79.6292V79.6127ZM67.0003 79.6169C67.0047 79.961 67.1224 80.2957 67.3361 80.5708L79.2113 96.2251C79.2113 96.2251 79.3456 96.3225 79.4128 96.3875C79.4389 96.4127 79.4574 96.438 79.4752 96.4624C79.5031 96.5006 79.5293 96.5364 79.5807 96.5663L102.843 113.114C104.571 114.6 107.032 114.986 109.158 114.104C110.278 113.567 111.237 112.763 111.947 111.766L113.357 109.866C114.276 108.742 114.805 107.367 114.869 105.936C114.8 103.945 113.712 102.118 111.963 101.064L88.6336 84.5818C88.538 84.5284 88.4355 84.486 88.3314 84.4519C88.3314 84.4519 88.2306 84.4519 88.18 84.3545L69.2174 78.086C68.3391 77.7987 67.3851 78.2549 67.0897 79.1041C67.0318 79.2692 67.0017 79.4422 67.0003 79.6169ZM109.982 103.728C110.837 104.194 111.411 105.026 111.527 105.969C111.457 106.711 111.153 107.414 110.654 107.983L109.243 109.834C108.87 110.383 108.363 110.836 107.765 111.149L107.753 111.154C107.44 111.289 106.518 111.687 104.842 110.5L103.331 109.428L105.901 106.05L108.454 102.656L109.982 103.728ZM104.169 102.803L105.748 100.724L88.0446 88.1709L82.905 94.9265L100.609 107.48L102.187 105.417L88.5153 95.6733C88.4561 95.6359 88.4009 95.5968 88.3474 95.5528C87.6353 94.9799 87.5391 93.9551 88.1322 93.2666C88.7248 92.5781 89.7847 92.484 90.4968 93.0586L104.169 102.803ZM84.9727 86.7089L80.5549 92.5227L77.8175 88.9174L80.5885 85.2637L84.9727 86.7089ZM75.7334 86.1731L77.2617 84.16L73.1969 82.8281L75.7334 86.1731Z" fill="#D28B4B"/>
</svg>
