<svg width="150" height="150" viewBox="0 0 150 150" fill="none" xmlns="http://www.w3.org/2000/svg">
<circle cx="75" cy="75" r="73.5" stroke="#D28B4B" stroke-width="3"/>
<path d="M97.8207 35H52.7008C51.6397 35.0017 50.6226 35.4549 49.8723 36.2604C49.122 37.0658 48.6998 38.1578 48.6982 39.2969V110.703C48.6998 111.842 49.122 112.934 49.8723 113.74C50.6226 114.545 51.6397 114.998 52.7008 115H97.8207C98.8817 114.998 99.8989 114.545 100.649 113.74C101.4 112.934 101.822 111.842 101.823 110.703V39.2969C101.822 38.1578 101.4 37.0658 100.649 36.2604C99.8989 35.4549 98.8817 35.0017 97.8207 35V35ZM99.64 110.703C99.6393 111.221 99.4473 111.717 99.1063 112.083C98.7653 112.449 98.303 112.655 97.8207 112.656H52.7008C52.2185 112.655 51.7562 112.449 51.4152 112.083C51.0742 111.717 50.8822 111.221 50.8815 110.703V39.2969C50.8822 38.7791 51.0742 38.2828 51.4152 37.9167C51.7562 37.5506 52.2185 37.3446 52.7008 37.3438H97.8207C98.303 37.3446 98.7653 37.5506 99.1063 37.9167C99.4473 38.2828 99.6393 38.7791 99.64 39.2969V110.703Z" fill="#D28B4B"/>
<path d="M92.7257 41.25H57.7942C57.1189 41.2508 56.4715 41.5392 55.9939 42.0518C55.5164 42.5644 55.2478 43.2594 55.2471 43.9844V50.2344C55.2478 50.9593 55.5164 51.6543 55.9939 52.167C56.4715 52.6796 57.1189 52.9679 57.7942 52.9688H92.7257C93.401 52.9679 94.0484 52.6796 94.5259 52.167C95.0034 51.6543 95.272 50.9593 95.2728 50.2344V43.9844C95.272 43.2594 95.0034 42.5644 94.5259 42.0518C94.0484 41.5392 93.401 41.2508 92.7257 41.25ZM93.0895 50.2344C93.0895 50.338 93.0512 50.4373 92.983 50.5106C92.9147 50.5838 92.8222 50.625 92.7257 50.625H57.7942C57.6977 50.625 57.6051 50.5838 57.5369 50.5106C57.4686 50.4373 57.4303 50.338 57.4303 50.2344V43.9844C57.4303 43.8808 57.4686 43.7814 57.5369 43.7082C57.6051 43.6349 57.6977 43.5938 57.7942 43.5938H92.7257C92.8222 43.5938 92.9147 43.6349 92.983 43.7082C93.0512 43.7814 93.0895 43.8808 93.0895 43.9844V50.2344ZM60.7051 60.2344H57.7942C57.1189 60.2352 56.4715 60.5236 55.9939 61.0362C55.5164 61.5488 55.2478 62.2438 55.2471 62.9688V66.0938C55.2478 66.8187 55.5164 67.5137 55.9939 68.0263C56.4715 68.5389 57.1189 68.8273 57.7942 68.8281H60.7051C61.3804 68.8273 62.0278 68.5389 62.5053 68.0263C62.9828 67.5137 63.2514 66.8187 63.2522 66.0938V62.9688C63.2514 62.2438 62.9828 61.5488 62.5053 61.0362C62.0278 60.5236 61.3804 60.2352 60.7051 60.2344ZM61.069 66.0938C61.069 66.1973 61.0307 66.2967 60.9624 66.37C60.8942 66.4432 60.8016 66.4844 60.7051 66.4844H57.7942C57.6977 66.4844 57.6051 66.4432 57.5369 66.37C57.4686 66.2967 57.4303 66.1973 57.4303 66.0938V62.9688C57.4303 62.8652 57.4686 62.7658 57.5369 62.6925C57.6051 62.6193 57.6977 62.5781 57.7942 62.5781H60.7051C60.8016 62.5781 60.8942 62.6193 60.9624 62.6925C61.0307 62.7658 61.069 62.8652 61.069 62.9688V66.0938ZM71.3781 60.2344H68.4672C67.7919 60.2352 67.1445 60.5236 66.667 61.0362C66.1895 61.5488 65.9209 62.2438 65.9201 62.9688V66.0938C65.9209 66.8187 66.1895 67.5137 66.667 68.0263C67.1445 68.5389 67.7919 68.8273 68.4672 68.8281H71.3781C72.0534 68.8273 72.7009 68.5389 73.1784 68.0263C73.6559 67.5137 73.9245 66.8187 73.9252 66.0938V62.9688C73.9245 62.2438 73.6559 61.5488 73.1784 61.0362C72.7009 60.5236 72.0534 60.2352 71.3781 60.2344ZM71.742 66.0938C71.742 66.1973 71.7037 66.2967 71.6354 66.37C71.5672 66.4432 71.4747 66.4844 71.3781 66.4844H68.4672C68.3708 66.484 68.2785 66.4427 68.2103 66.3695C68.1422 66.2963 68.1037 66.1972 68.1033 66.0938V62.9688C68.1037 62.8653 68.1422 62.7662 68.2103 62.693C68.2785 62.6198 68.3708 62.5785 68.4672 62.5781H71.3781C71.4747 62.5781 71.5672 62.6193 71.6354 62.6925C71.7037 62.7658 71.742 62.8652 71.742 62.9688V66.0938ZM82.0526 60.2344H79.1417C78.4664 60.2352 77.819 60.5236 77.3415 61.0362C76.864 61.5488 76.5954 62.2438 76.5946 62.9688V66.0938C76.5954 66.8187 76.864 67.5137 77.3415 68.0263C77.819 68.5389 78.4664 68.8273 79.1417 68.8281H82.0526C82.7279 68.8273 83.3753 68.5389 83.8528 68.0263C84.3304 67.5137 84.599 66.8187 84.5997 66.0938V62.9688C84.599 62.2438 84.3304 61.5488 83.8528 61.0362C83.3753 60.5236 82.7279 60.2352 82.0526 60.2344ZM82.4165 66.0938C82.4161 66.1972 82.3777 66.2963 82.3095 66.3695C82.2413 66.4427 82.149 66.484 82.0526 66.4844H79.1417C79.0452 66.4844 78.9526 66.4432 78.8844 66.37C78.8161 66.2967 78.7778 66.1973 78.7778 66.0938V62.9688C78.7778 62.8652 78.8161 62.7658 78.8844 62.6925C78.9526 62.6193 79.0452 62.5781 79.1417 62.5781H82.0526C82.149 62.5785 82.2413 62.6198 82.3095 62.693C82.3777 62.7662 82.4161 62.8653 82.4165 62.9688V66.0938ZM92.7257 60.2344H89.8147C89.1394 60.2352 88.492 60.5236 88.0145 61.0362C87.537 61.5488 87.2684 62.2438 87.2676 62.9688V66.0938C87.2684 66.8187 87.537 67.5137 88.0145 68.0263C88.492 68.5389 89.1394 68.8273 89.8147 68.8281H92.7257C93.401 68.8273 94.0484 68.5389 94.5259 68.0263C95.0034 67.5137 95.272 66.8187 95.2728 66.0938V62.9688C95.272 62.2438 95.0034 61.5488 94.5259 61.0362C94.0484 60.5236 93.401 60.2352 92.7257 60.2344ZM93.0895 66.0938C93.0895 66.1973 93.0512 66.2967 92.983 66.37C92.9147 66.4432 92.8222 66.4844 92.7257 66.4844H89.8147C89.7182 66.4844 89.6257 66.4432 89.5574 66.37C89.4892 66.2967 89.4508 66.1973 89.4508 66.0938V62.9688C89.4508 62.8652 89.4892 62.7658 89.5574 62.6925C89.6257 62.6193 89.7182 62.5781 89.8147 62.5781H92.7257C92.8222 62.5781 92.9147 62.6193 92.983 62.6925C93.0512 62.7658 93.0895 62.8652 93.0895 62.9688V66.0938ZM60.7051 73.6719H57.7942C57.1189 73.6727 56.4715 73.9611 55.9939 74.4737C55.5164 74.9863 55.2478 75.6813 55.2471 76.4062V79.5312C55.2478 80.2562 55.5164 80.9512 55.9939 81.4638C56.4715 81.9764 57.1189 82.2648 57.7942 82.2656H60.7051C61.3804 82.2648 62.0278 81.9764 62.5053 81.4638C62.9828 80.9512 63.2514 80.2562 63.2522 79.5312V76.4062C63.2514 75.6813 62.9828 74.9863 62.5053 74.4737C62.0278 73.9611 61.3804 73.6727 60.7051 73.6719ZM61.069 79.5312C61.069 79.6348 61.0307 79.7342 60.9624 79.8075C60.8942 79.8807 60.8016 79.9219 60.7051 79.9219H57.7942C57.6977 79.9219 57.6051 79.8807 57.5369 79.8075C57.4686 79.7342 57.4303 79.6348 57.4303 79.5312V76.4062C57.4303 76.3027 57.4686 76.2033 57.5369 76.13C57.6051 76.0568 57.6977 76.0156 57.7942 76.0156H60.7051C60.8016 76.0156 60.8942 76.0568 60.9624 76.13C61.0307 76.2033 61.069 76.3027 61.069 76.4062V79.5312ZM71.3781 73.6719H68.4672C67.7919 73.6727 67.1445 73.9611 66.667 74.4737C66.1895 74.9863 65.9209 75.6813 65.9201 76.4062V79.5312C65.9209 80.2562 66.1895 80.9512 66.667 81.4638C67.1445 81.9764 67.7919 82.2648 68.4672 82.2656H71.3781C72.0534 82.2648 72.7009 81.9764 73.1784 81.4638C73.6559 80.9512 73.9245 80.2562 73.9252 79.5312V76.4062C73.9245 75.6813 73.6559 74.9863 73.1784 74.4737C72.7009 73.9611 72.0534 73.6727 71.3781 73.6719ZM71.742 79.5312C71.742 79.6348 71.7037 79.7342 71.6354 79.8075C71.5672 79.8807 71.4747 79.9219 71.3781 79.9219H68.4672C68.3708 79.9215 68.2785 79.8802 68.2103 79.807C68.1422 79.7338 68.1037 79.6347 68.1033 79.5312V76.4062C68.1037 76.3028 68.1422 76.2037 68.2103 76.1305C68.2785 76.0573 68.3708 76.016 68.4672 76.0156H71.3781C71.4747 76.0156 71.5672 76.0568 71.6354 76.13C71.7037 76.2033 71.742 76.3027 71.742 76.4062V79.5312ZM82.0526 73.6719H79.1417C78.4664 73.6727 77.819 73.9611 77.3415 74.4737C76.864 74.9863 76.5954 75.6813 76.5946 76.4062V79.5312C76.5954 80.2562 76.864 80.9512 77.3415 81.4638C77.819 81.9764 78.4664 82.2648 79.1417 82.2656H82.0526C82.7279 82.2648 83.3753 81.9764 83.8528 81.4638C84.3304 80.9512 84.599 80.2562 84.5997 79.5312V76.4062C84.599 75.6813 84.3304 74.9863 83.8528 74.4737C83.3753 73.9611 82.7279 73.6727 82.0526 73.6719ZM82.4165 79.5312C82.4161 79.6347 82.3777 79.7338 82.3095 79.807C82.2413 79.8802 82.149 79.9215 82.0526 79.9219H79.1417C79.0452 79.9219 78.9526 79.8807 78.8844 79.8075C78.8161 79.7342 78.7778 79.6348 78.7778 79.5312V76.4062C78.7778 76.3027 78.8161 76.2033 78.8844 76.13C78.9526 76.0568 79.0452 76.0156 79.1417 76.0156H82.0526C82.149 76.016 82.2413 76.0573 82.3095 76.1305C82.3777 76.2037 82.4161 76.3028 82.4165 76.4062V79.5312ZM92.7257 73.6719H89.8147C89.1394 73.6727 88.492 73.9611 88.0145 74.4737C87.537 74.9863 87.2684 75.6813 87.2676 76.4062V79.5312C87.2684 80.2562 87.537 80.9512 88.0145 81.4638C88.492 81.9764 89.1394 82.2648 89.8147 82.2656H92.7257C93.401 82.2648 94.0484 81.9764 94.5259 81.4638C95.0034 80.9512 95.272 80.2562 95.2728 79.5312V76.4062C95.272 75.6813 95.0034 74.9863 94.5259 74.4737C94.0484 73.9611 93.401 73.6727 92.7257 73.6719ZM93.0895 79.5312C93.0895 79.6348 93.0512 79.7342 92.983 79.8075C92.9147 79.8807 92.8222 79.9219 92.7257 79.9219H89.8147C89.7182 79.9219 89.6257 79.8807 89.5574 79.8075C89.4892 79.7342 89.4508 79.6348 89.4508 79.5312V76.4062C89.4508 76.3027 89.4892 76.2033 89.5574 76.13C89.6257 76.0568 89.7182 76.0156 89.8147 76.0156H92.7257C92.8222 76.0156 92.9147 76.0568 92.983 76.13C93.0512 76.2033 93.0895 76.3027 93.0895 76.4062V79.5312ZM60.7051 87.1094H57.7942C57.1189 87.1102 56.4715 87.3986 55.9939 87.9112C55.5164 88.4238 55.2478 89.1188 55.2471 89.8438V92.9688C55.2478 93.6937 55.5164 94.3887 55.9939 94.9013C56.4715 95.4139 57.1189 95.7023 57.7942 95.7031H60.7051C61.3804 95.7023 62.0278 95.4139 62.5053 94.9013C62.9828 94.3887 63.2514 93.6937 63.2522 92.9688V89.8438C63.2514 89.1188 62.9828 88.4238 62.5053 87.9112C62.0278 87.3986 61.3804 87.1102 60.7051 87.1094ZM61.069 92.9688C61.069 93.0723 61.0307 93.1717 60.9624 93.245C60.8942 93.3182 60.8016 93.3594 60.7051 93.3594H57.7942C57.6977 93.3594 57.6051 93.3182 57.5369 93.245C57.4686 93.1717 57.4303 93.0723 57.4303 92.9688V89.8438C57.4303 89.7402 57.4686 89.6408 57.5369 89.5675C57.6051 89.4943 57.6977 89.4531 57.7942 89.4531H60.7051C60.8016 89.4531 60.8942 89.4943 60.9624 89.5675C61.0307 89.6408 61.069 89.7402 61.069 89.8438V92.9688ZM71.3781 87.1094H68.4672C67.7919 87.1102 67.1445 87.3986 66.667 87.9112C66.1895 88.4238 65.9209 89.1188 65.9201 89.8438V92.9688C65.9209 93.6937 66.1895 94.3887 66.667 94.9013C67.1445 95.4139 67.7919 95.7023 68.4672 95.7031H71.3781C72.0534 95.7023 72.7009 95.4139 73.1784 94.9013C73.6559 94.3887 73.9245 93.6937 73.9252 92.9688V89.8438C73.9245 89.1188 73.6559 88.4238 73.1784 87.9112C72.7009 87.3986 72.0534 87.1102 71.3781 87.1094ZM71.742 92.9688C71.742 93.0723 71.7037 93.1717 71.6354 93.245C71.5672 93.3182 71.4747 93.3594 71.3781 93.3594H68.4672C68.3708 93.359 68.2785 93.3177 68.2103 93.2445C68.1422 93.1713 68.1037 93.0722 68.1033 92.9688V89.8438C68.1037 89.7403 68.1422 89.6412 68.2103 89.568C68.2785 89.4948 68.3708 89.4535 68.4672 89.4531H71.3781C71.4747 89.4531 71.5672 89.4943 71.6354 89.5675C71.7037 89.6408 71.742 89.7402 71.742 89.8438V92.9688ZM82.0526 87.1094H79.1417C78.4664 87.1102 77.819 87.3986 77.3415 87.9112C76.864 88.4238 76.5954 89.1188 76.5946 89.8438V92.9688C76.5954 93.6937 76.864 94.3887 77.3415 94.9013C77.819 95.4139 78.4664 95.7023 79.1417 95.7031H82.0526C82.7279 95.7023 83.3753 95.4139 83.8528 94.9013C84.3304 94.3887 84.599 93.6937 84.5997 92.9688V89.8438C84.599 89.1188 84.3304 88.4238 83.8528 87.9112C83.3753 87.3986 82.7279 87.1102 82.0526 87.1094ZM82.4165 92.9688C82.4161 93.0722 82.3777 93.1713 82.3095 93.2445C82.2413 93.3177 82.149 93.359 82.0526 93.3594H79.1417C79.0452 93.3594 78.9526 93.3182 78.8844 93.245C78.8161 93.1717 78.7778 93.0723 78.7778 92.9688V89.8438C78.7778 89.7402 78.8161 89.6408 78.8844 89.5675C78.9526 89.4943 79.0452 89.4531 79.1417 89.4531H82.0526C82.149 89.4535 82.2413 89.4948 82.3095 89.568C82.3777 89.6412 82.4161 89.7403 82.4165 89.8438V92.9688ZM60.7051 100.547H57.7942C57.1189 100.548 56.4715 100.836 55.9939 101.349C55.5164 101.861 55.2478 102.556 55.2471 103.281V106.406C55.2478 107.131 55.5164 107.826 55.9939 108.339C56.4715 108.851 57.1189 109.14 57.7942 109.141H60.7051C61.3804 109.14 62.0278 108.851 62.5053 108.339C62.9828 107.826 63.2514 107.131 63.2522 106.406V103.281C63.2514 102.556 62.9828 101.861 62.5053 101.349C62.0278 100.836 61.3804 100.548 60.7051 100.547ZM61.069 106.406C61.069 106.51 61.0307 106.609 60.9624 106.682C60.8942 106.756 60.8016 106.797 60.7051 106.797H57.7942C57.6977 106.797 57.6051 106.756 57.5369 106.682C57.4686 106.609 57.4303 106.51 57.4303 106.406V103.281C57.4303 103.178 57.4686 103.078 57.5369 103.005C57.6051 102.932 57.6977 102.891 57.7942 102.891H60.7051C60.8016 102.891 60.8942 102.932 60.9624 103.005C61.0307 103.078 61.069 103.178 61.069 103.281V106.406ZM71.3781 100.547H68.4672C67.7919 100.548 67.1445 100.836 66.667 101.349C66.1895 101.861 65.9209 102.556 65.9201 103.281V106.406C65.9209 107.131 66.1895 107.826 66.667 108.339C67.1445 108.851 67.7919 109.14 68.4672 109.141H71.3781C72.0534 109.14 72.7009 108.851 73.1784 108.339C73.6559 107.826 73.9245 107.131 73.9252 106.406V103.281C73.9245 102.556 73.6559 101.861 73.1784 101.349C72.7009 100.836 72.0534 100.548 71.3781 100.547ZM71.742 106.406C71.742 106.51 71.7037 106.609 71.6354 106.682C71.5672 106.756 71.4747 106.797 71.3781 106.797H68.4672C68.3708 106.796 68.2785 106.755 68.2103 106.682C68.1422 106.609 68.1037 106.51 68.1033 106.406V103.281C68.1037 103.178 68.1422 103.079 68.2103 103.005C68.2785 102.932 68.3708 102.891 68.4672 102.891H71.3781C71.4747 102.891 71.5672 102.932 71.6354 103.005C71.7037 103.078 71.742 103.178 71.742 103.281V106.406ZM82.0526 100.547H79.1417C78.4664 100.548 77.819 100.836 77.3415 101.349C76.864 101.861 76.5954 102.556 76.5946 103.281V106.406C76.5954 107.131 76.864 107.826 77.3415 108.339C77.819 108.851 78.4664 109.14 79.1417 109.141H82.0526C82.7279 109.14 83.3753 108.851 83.8528 108.339C84.3304 107.826 84.599 107.131 84.5997 106.406V103.281C84.599 102.556 84.3304 101.861 83.8528 101.349C83.3753 100.836 82.7279 100.548 82.0526 100.547ZM82.4165 106.406C82.4161 106.51 82.3777 106.609 82.3095 106.682C82.2413 106.755 82.149 106.796 82.0526 106.797H79.1417C79.0452 106.797 78.9526 106.756 78.8844 106.682C78.8161 106.609 78.7778 106.51 78.7778 106.406V103.281C78.7778 103.178 78.8161 103.078 78.8844 103.005C78.9526 102.932 79.0452 102.891 79.1417 102.891H82.0526C82.149 102.891 82.2413 102.932 82.3095 103.005C82.3777 103.079 82.4161 103.178 82.4165 103.281V106.406ZM92.7257 87.1094H89.8147C89.1394 87.1102 88.492 87.3986 88.0145 87.9112C87.537 88.4238 87.2684 89.1188 87.2676 89.8438V106.406C87.2684 107.131 87.537 107.826 88.0145 108.339C88.492 108.851 89.1394 109.14 89.8147 109.141H92.7257C93.401 109.14 94.0484 108.851 94.5259 108.339C95.0034 107.826 95.272 107.131 95.2728 106.406V89.8438C95.272 89.1188 95.0034 88.4238 94.5259 87.9112C94.0484 87.3986 93.401 87.1102 92.7257 87.1094ZM93.0895 106.406C93.0895 106.51 93.0512 106.609 92.983 106.682C92.9147 106.756 92.8222 106.797 92.7257 106.797H89.8147C89.7182 106.797 89.6257 106.756 89.5574 106.682C89.4892 106.609 89.4508 106.51 89.4508 106.406V89.8438C89.4508 89.7402 89.4892 89.6408 89.5574 89.5675C89.6257 89.4943 89.7182 89.4531 89.8147 89.4531H92.7257C92.8222 89.4531 92.9147 89.4943 92.983 89.5675C93.0512 89.6408 93.0895 89.7402 93.0895 89.8438V106.406Z" fill="#D28B4B"/>
</svg>
