<svg width="150" height="150" viewBox="0 0 150 150" fill="none" xmlns="http://www.w3.org/2000/svg">
<circle cx="75" cy="75" r="73.5" stroke="#D28B4B" stroke-width="3"/>
<path fill-rule="evenodd" clip-rule="evenodd" d="M82.8488 35H74.5273V55.6573C85.3074 55.6573 94.0072 64.2958 94.0072 75C94.0072 85.7042 85.3074 94.3427 74.5273 94.3427V115H82.8488V105.986C85.6857 105.235 88.3334 104.108 90.792 102.606L97.2223 109.178L108.948 97.5352L102.518 90.9624C103.842 88.5211 104.976 85.892 105.733 83.2629H115V66.7371H105.733C104.976 63.9202 103.842 61.2911 102.518 59.0376L108.948 52.4648L97.2223 40.8216L90.792 47.2066C88.3334 45.892 85.6857 44.7653 82.8488 44.0141V35V35Z" stroke="#D28B4B" stroke-width="3" stroke-miterlimit="22.9256" stroke-linecap="round" stroke-linejoin="round"/>
<path d="M73.5815 84.9529C79.013 84.9529 83.416 80.5808 83.416 75.1876C83.416 69.7944 79.013 65.4224 73.5815 65.4224C68.1501 65.4224 63.7471 69.7944 63.7471 75.1876C63.7471 80.5808 68.1501 84.9529 73.5815 84.9529Z" stroke="#D28B4B" stroke-width="3" stroke-miterlimit="22.9256" stroke-linecap="round" stroke-linejoin="round"/>
<path d="M66.9627 68.0515H57.8848V55.0938" stroke="#D28B4B" stroke-width="3" stroke-miterlimit="22.9256" stroke-linecap="round" stroke-linejoin="round"/>
<path d="M63.7471 75.188H45.7803" stroke="#D28B4B" stroke-width="3" stroke-miterlimit="22.9256" stroke-linecap="round" stroke-linejoin="round"/>
<path d="M66.9627 82.3242H57.8848V95.8453" stroke="#D28B4B" stroke-width="3" stroke-miterlimit="22.9256" stroke-linecap="round" stroke-linejoin="round"/>
<path d="M57.6955 106.737C60.7246 106.737 63.1802 104.298 63.1802 101.291C63.1802 98.283 60.7246 95.8447 57.6955 95.8447C54.6665 95.8447 52.2109 98.283 52.2109 101.291C52.2109 104.298 54.6665 106.737 57.6955 106.737Z" stroke="#D28B4B" stroke-width="3" stroke-miterlimit="22.9256" stroke-linecap="round" stroke-linejoin="round"/>
<path d="M57.6955 55.0937C60.7246 55.0937 63.1802 52.6554 63.1802 49.6477C63.1802 46.6399 60.7246 44.2017 57.6955 44.2017C54.6665 44.2017 52.2109 46.6399 52.2109 49.6477C52.2109 52.6554 54.6665 55.0937 57.6955 55.0937Z" stroke="#D28B4B" stroke-width="3" stroke-miterlimit="22.9256" stroke-linecap="round" stroke-linejoin="round"/>
<path d="M40.4846 80.0705C43.5137 80.0705 45.9692 77.6322 45.9692 74.6245C45.9692 71.6167 43.5137 69.1785 40.4846 69.1785C37.4555 69.1785 35 71.6167 35 74.6245C35 77.6322 37.4555 80.0705 40.4846 80.0705Z" stroke="#D28B4B" stroke-width="3" stroke-miterlimit="22.9256" stroke-linecap="round" stroke-linejoin="round"/>
</svg>
