<svg width="150" height="147" viewBox="0 0 150 147" fill="none" xmlns="http://www.w3.org/2000/svg">
<path d="M148.5 73.5C148.5 113.236 115.622 145.5 75 145.5C34.3784 145.5 1.5 113.236 1.5 73.5C1.5 33.7639 34.3784 1.5 75 1.5C115.622 1.5 148.5 33.7639 148.5 73.5Z" stroke="#D28B4B" stroke-width="3"/>
<rect width="32" height="29" rx="1" transform="matrix(1 0 0 -1 83 63)" stroke="#D28B4B" stroke-width="3" stroke-linecap="round"/>
<path d="M64 85H91C91.9428 85 92.4142 85 92.7071 85.2929C93 85.5858 93 86.0572 93 87V112C93 112.943 93 113.414 92.7071 113.707C92.4142 114 91.9428 114 91 114H64V85Z" stroke="#D28B4B" stroke-width="3" stroke-linecap="round"/>
<path d="M64 56C64 55.0572 64 54.5858 63.7071 54.2929C63.4142 54 62.9428 54 62 54H36C35.0572 54 34.5858 54 34.2929 54.2929C34 54.5858 34 55.0572 34 56V85H64V56Z" stroke="#D28B4B" stroke-width="3" stroke-linecap="round"/>
<path d="M64 114H36C35.0572 114 34.5858 114 34.2929 113.707C34 113.414 34 112.943 34 112V85H64V114Z" stroke="#D28B4B" stroke-width="3" stroke-linecap="round"/>
</svg>
