<svg width="150" height="150" viewBox="0 0 150 150" fill="none" xmlns="http://www.w3.org/2000/svg">
<circle cx="75" cy="75" r="73.5" stroke="#D28B4B" stroke-width="3"/>
<g clip-path="url(#clip0_364_1883)">
<path d="M99.2991 46.6718C105.792 51.7992 110.39 58.8185 112.229 66.7042C113.939 74.0418 113.204 81.9629 110.022 88.8407C104.026 101.907 90.2501 110.5 75.3708 110.305C60.657 110.111 46.9364 101.217 41.4004 88.0628C38.5864 81.3617 37.8875 73.918 39.506 66.8457C41.0877 59.9501 44.7846 53.6027 50.0815 48.7051C55.3233 43.8428 61.9997 40.5718 69.1542 39.2811C77.5963 37.7783 86.5165 39.1927 94.0205 43.224C95.8597 44.2318 97.6438 45.381 99.2991 46.6718C99.8876 47.1315 100.678 47.2022 101.249 46.6718C101.745 46.2121 101.819 45.2396 101.249 44.7976C93.7998 38.9982 84.4566 35.8334 74.8374 36.0809C66.9104 36.2754 59.0937 38.7684 52.638 43.224C46.2927 47.6265 41.382 53.6911 38.5312 60.6927C35.6068 67.9242 35.0919 76.0397 36.9863 83.5718C40.6647 98.2823 53.5944 109.934 69.1358 112.409C77.1732 113.682 85.4314 112.639 92.825 109.333C99.8325 106.203 105.828 101.023 109.911 94.7108C114.16 88.1158 116.238 80.2655 115.815 72.5212C115.337 63.8399 111.787 55.5122 105.792 49.0056C104.394 47.4851 102.867 46.0883 101.23 44.7976C100.642 44.3379 99.8508 44.2671 99.2807 44.7976C98.8025 45.2573 98.7289 46.2121 99.2991 46.6718ZM104.633 109.492C106.785 111.561 108.918 113.612 111.07 115.68C112.321 116.883 114.27 115.008 113.02 113.806C110.868 111.738 108.734 109.687 106.582 107.618C105.332 106.398 103.382 108.272 104.633 109.492ZM45.1892 107.618C43.0373 109.687 40.9038 111.738 38.7519 113.806C37.5012 115.008 39.4508 116.883 40.7015 115.68C42.8534 113.612 44.9869 111.561 47.1388 109.492C48.3894 108.272 46.4399 106.398 45.1892 107.618Z" fill="#D28B4B"/>
<path d="M94.8132 73.5866C89.2601 73.5866 83.707 73.5866 78.1702 73.5866C76.6068 73.5866 75.1738 72.9211 74.6364 71.4002C74.3595 70.6239 74.4573 69.7525 74.4573 68.9445C74.4573 65.665 74.4573 62.3696 74.4573 59.09C74.4573 56.4442 74.4573 53.7984 74.4573 51.1526C74.4573 49.6158 72.0145 49.6158 72.0145 51.1526C72.0145 56.9512 72.0145 62.734 72.0145 68.5326C72.0145 69.3089 71.9657 70.1169 72.0471 70.8932C72.3728 73.7767 74.8318 75.9155 77.7956 75.9789C80.3849 76.0264 82.9905 75.9789 85.5798 75.9789C88.6576 75.9789 91.7517 75.9789 94.8295 75.9789C96.3929 75.963 96.3929 73.5866 94.8132 73.5866Z" fill="#D28B4B"/>
<path d="M101.215 31.1141C104.812 34.202 107.715 37.9999 109.813 42.3758C110.492 43.7959 112.543 42.5409 111.864 41.1208C109.703 36.5963 106.642 32.5672 102.903 29.3472C102.398 28.9179 101.719 28.8518 101.23 29.3472C100.789 29.7931 100.71 30.6847 101.215 31.1141ZM47.0981 29.3472C43.3588 32.5672 40.298 36.5963 38.1365 41.1208C37.4581 42.5409 39.4934 43.7959 40.1876 42.3758C42.2702 37.9999 45.1732 34.202 48.7705 31.1141C49.2753 30.6847 49.1807 29.8096 48.7705 29.3637C48.2971 28.8353 47.5872 28.9344 47.0981 29.3472Z" fill="#D28B4B"/>
</g>
<defs>
<clipPath id="clip0_364_1883">
<rect width="90" height="90" fill="white" transform="translate(30 30)"/>
</clipPath>
</defs>
</svg>
