<svg width="150" height="150" viewBox="0 0 150 150" fill="none" xmlns="http://www.w3.org/2000/svg">
<circle cx="75" cy="75" r="73.5" stroke="#D28B4B" stroke-width="3"/>
<g clip-path="url(#clip0_364_1892)">
<path d="M113.373 100.062L96.0125 83.1298C96.2971 82.5554 96.4276 81.9199 96.3917 81.2828C96.3558 80.6458 96.1546 80.028 95.8071 79.4876C95.4595 78.9471 94.977 78.5016 94.4047 78.1929C93.8324 77.8841 93.1891 77.7222 92.5351 77.7223C92.0266 77.7211 91.5228 77.8183 91.053 78.0084C90.5832 78.1985 90.1568 78.4777 89.7984 78.8298L87.095 81.4648L81.5625 76.0448L94.3186 62.5748L98.0625 59.7348C98.8465 60.6165 99.5272 61.5808 100.092 62.6098C101.622 65.5403 102.263 68.8361 101.94 72.1098C101.915 72.3811 101.982 72.6527 102.131 72.8834C102.279 73.114 102.501 73.2911 102.762 73.3876C103.023 73.4841 103.309 73.4947 103.577 73.418C103.845 73.3412 104.08 73.1812 104.246 72.9623C106.407 70.1511 107.688 66.7903 107.936 63.2848C108.538 53.7673 100.164 46.7848 97.8856 45.4198L97.4577 45.1698C96.2472 44.503 95.1103 43.7164 94.065 42.8223C92.2017 41.0047 90.5168 39.021 89.0322 36.8973C88.9258 36.7458 88.7866 36.6191 88.6244 36.5261C88.4621 36.433 88.2809 36.376 88.0935 36.3591C87.9061 36.3422 87.7172 36.3657 87.5402 36.428C87.3632 36.4904 87.2024 36.59 87.0693 36.7198L78.6797 44.9048C78.5216 45.0595 78.4078 45.2519 78.3497 45.4629C78.2916 45.6739 78.2911 45.896 78.3484 46.1072C78.4057 46.3184 78.5187 46.5112 78.6762 46.6665C78.8337 46.8218 79.0302 46.9341 79.246 46.9923C81.8598 47.6948 86.3441 49.4348 87.2615 51.1148C88.0951 52.7457 88.2414 54.6301 87.669 56.3648L73.975 68.6498L61.1394 56.1198L59.3995 47.6723C59.3358 47.3564 59.1529 47.0754 58.887 46.8848L46.2026 38.0348C45.9502 37.8589 45.6421 37.776 45.3329 37.8007C45.0238 37.8254 44.7336 37.9562 44.5139 38.1698L37.2518 45.2498C37.0315 45.4633 36.8963 45.7463 36.8705 46.0482C36.8447 46.3501 36.9299 46.6511 37.1108 46.8973L46.1821 59.2723C46.3769 59.5323 46.6652 59.7108 46.9893 59.7723L55.648 61.4723L68.258 73.7748L36.3805 102.41C35.2766 103.399 34.505 104.69 34.167 106.115C33.829 107.54 33.9405 109.031 34.4867 110.392C35.033 111.754 35.9885 112.923 37.2278 113.745C38.4672 114.567 39.9324 115.005 41.4312 115H41.6106C42.6057 114.982 43.5866 114.766 44.4937 114.367C45.4008 113.967 46.215 113.391 46.8868 112.675L76.2991 81.5998L81.6291 86.7998L78.9283 89.4348C78.272 90.0581 77.8655 90.8895 77.7818 91.7793C77.6982 92.6691 77.9429 93.5588 78.472 94.2881C79.0011 95.0175 79.7797 95.5385 80.6677 95.7575C81.5556 95.9764 82.4945 95.8788 83.3153 95.4823L100.692 112.435C101.519 113.271 102.509 113.937 103.603 114.396C104.697 114.854 105.874 115.096 107.065 115.106C108.256 115.116 109.437 114.894 110.539 114.454C111.641 114.015 112.642 113.365 113.485 112.543C114.327 111.722 114.993 110.745 115.444 109.669C115.895 108.594 116.121 107.442 116.111 106.28C116.101 105.118 115.853 103.97 115.383 102.902C114.913 101.835 114.23 100.869 113.373 100.062ZM81.9802 45.2198L87.8125 39.5323C89.1632 41.3899 90.6913 43.1184 92.3763 44.6948C93.5433 45.6921 94.8115 46.5708 96.1611 47.3173L96.5583 47.5498C98.4315 48.6648 105.901 54.9373 105.381 63.1223C105.279 64.6547 104.938 66.1629 104.369 67.5948C103.849 63.6455 102.001 59.9761 99.1131 57.1623C98.8925 56.9462 98.5985 56.8163 98.2866 56.7969C97.9746 56.7776 97.6661 56.8702 97.4193 57.0573L93.5576 59.9873L90.2263 56.7373C90.869 54.4688 90.6195 52.048 89.5268 49.9498C88.3019 47.7073 84.4402 46.0698 81.9802 45.2198ZM88.7221 58.8073L91.6716 61.6848L79.7303 74.2948L75.7687 70.4373L88.7221 58.8073ZM44.9982 110.98C44.5588 111.448 44.0265 111.824 43.4336 112.085C42.8407 112.347 42.1996 112.488 41.5491 112.5C40.8907 112.513 40.2363 112.398 39.6242 112.161C39.0121 111.924 38.4547 111.57 37.9846 111.12C37.5217 110.664 37.1573 110.123 36.9128 109.528C36.6684 108.933 36.549 108.295 36.5616 107.654C36.5743 107.013 36.7188 106.381 36.9866 105.795C37.2543 105.21 37.6399 104.682 38.1205 104.245L70.0953 75.5298L74.5028 79.8123L44.9982 110.98ZM77.2063 78.8698C77.167 78.8407 77.1259 78.814 77.0833 78.7898L71.1383 73.0148C71.1135 72.9732 71.0861 72.9331 71.0563 72.8948L57.2188 59.3948C57.036 59.2165 56.8033 59.0948 56.55 59.0448L48.0117 57.3698L39.8937 46.2873L45.5696 40.7498L56.9318 48.6748L58.6461 56.9998C58.6987 57.247 58.8243 57.4738 59.0074 57.6523L72.9986 71.3023C73.038 71.3313 73.0791 71.358 73.1216 71.3823L78.7591 76.8823C78.7839 76.9239 78.8113 76.964 78.8411 77.0023L85.25 83.2723L84.3685 84.1323L83.4818 84.9998L77.2063 78.8698ZM82.5491 92.9698C82.3106 93.1785 81.9992 93.2901 81.6789 93.2817C81.3586 93.2733 81.0538 93.1455 80.8271 92.9247C80.6004 92.7038 80.469 92.4066 80.46 92.0942C80.4509 91.7818 80.5648 91.4778 80.7784 91.2448L84.4069 87.7048L88.02 84.1798L91.6562 80.6373C91.7726 80.5237 91.9108 80.4336 92.063 80.3723C92.2151 80.3109 92.3782 80.2795 92.5428 80.2798C92.7896 80.281 93.0304 80.3533 93.2352 80.4876C93.44 80.6218 93.5996 80.8121 93.694 81.0345C93.7885 81.2569 93.8135 81.5015 93.7659 81.7377C93.7184 81.9739 93.6005 82.1912 93.4269 82.3623L82.5491 92.9698ZM111.559 110.667C110.339 111.804 108.717 112.438 107.03 112.438C105.343 112.438 103.721 111.804 102.501 110.667L85.3063 93.8948L94.3648 85.0548L111.559 101.83C112.76 103.002 113.435 104.591 113.435 106.249C113.435 107.906 112.76 109.495 111.559 110.667ZM93.7421 90.9173C93.5004 90.6896 93.1768 90.5636 92.8409 90.5664C92.5049 90.5693 92.1836 90.7008 91.946 90.9325C91.7085 91.1643 91.5737 91.4778 91.5708 91.8055C91.5679 92.1333 91.697 92.449 91.9304 92.6848L108.238 108.595C108.48 108.822 108.803 108.948 109.139 108.946C109.475 108.943 109.797 108.811 110.034 108.58C110.272 108.348 110.407 108.034 110.409 107.707C110.412 107.379 110.283 107.063 110.05 106.827L93.7421 90.9173Z" fill="#D28B4B"/>
</g>
<defs>
<clipPath id="clip0_364_1892">
<rect width="82" height="80" fill="white" transform="translate(34 35)"/>
</clipPath>
</defs>
</svg>
