<svg width="150" height="150" viewBox="0 0 150 150" fill="none" xmlns="http://www.w3.org/2000/svg">
<path d="M148.5 75C148.5 115.593 115.593 148.5 75 148.5C34.4071 148.5 1.5 115.593 1.5 75C1.5 34.4071 34.4071 1.5 75 1.5C115.593 1.5 148.5 34.4071 148.5 75Z" stroke="#D28B4B" stroke-width="3"/>
<path d="M73.7534 35.1553C73.1089 35.384 72.8659 35.5503 71.1647 36.9016C68.5759 38.9598 68.2589 39.2093 68.0264 39.3236C67.7094 39.5003 67.2022 39.4795 65.7863 39.2508C62.4896 38.7207 61.4752 38.596 60.7884 38.6376C59.8374 38.7103 59.0766 39.0845 58.3581 39.8433C57.8403 40.3942 57.7347 40.6125 56.9633 42.5667C56.509 43.7413 55.9912 45.0614 55.8116 45.5084C55.6425 45.945 55.3889 46.4231 55.2516 46.5583C55.1142 46.6934 54.533 46.9636 53.973 47.1715C51.9865 47.8784 49.8732 48.6995 49.3238 48.9698C48.6052 49.3232 47.9818 49.9573 47.6014 50.7265C47.1259 51.6724 47.1048 52.2025 47.4746 54.4166C48.1086 58.221 48.1615 58.6264 47.9818 59.011C47.8973 59.1981 47.0203 60.3207 46.0376 61.5161C45.0443 62.7011 44.1356 63.8237 44.0194 64.0108C43.6707 64.5721 43.4488 65.6012 43.5228 66.308C43.6496 67.4826 43.8398 67.7737 47.0414 71.5989C48.2249 73.0022 48.1932 72.8774 47.9184 74.6757C47.7916 75.5073 47.5697 76.8898 47.4218 77.7525C47.1259 79.53 47.1471 80.2368 47.538 81.0788C47.9924 82.0559 48.88 82.8147 50.0634 83.2513C50.3382 83.3552 50.56 83.4488 50.56 83.4592C50.56 83.4903 50.4121 83.7502 48.2883 87.3675C47.6014 88.5421 46.3546 90.6626 45.5093 92.0971C44.6745 93.5212 43.4382 95.6313 42.762 96.7747C38.8101 103.51 39.0215 103.136 39.0003 103.583C38.9898 104.009 39.2328 104.436 39.6238 104.685C39.8773 104.851 40.2577 104.851 45.0443 104.685C47.8762 104.591 50.5283 104.519 50.951 104.519H51.7012L52.4197 105.839C52.8107 106.577 53.4658 107.803 53.8885 108.573C54.3006 109.342 55.2093 111.015 55.8961 112.283C56.678 113.739 57.2381 114.664 57.4071 114.768C58.1573 115.256 58.9287 114.965 59.4887 113.978C59.8585 113.344 60.8729 111.608 63.821 106.598C66.0505 102.814 68.4702 98.6769 69.791 96.4109C70.2771 95.5793 70.7103 94.8621 70.7526 94.8101C70.7948 94.7581 71.3337 95.1219 71.9466 95.6001C73.5315 96.8474 74.5776 97.1593 75.9724 96.7851C76.7121 96.598 76.9973 96.4316 78.128 95.5377C78.6774 95.1011 79.1529 94.7477 79.1846 94.7477C79.2269 94.7477 79.9243 95.9119 80.7379 97.3256C81.5621 98.7393 82.6927 100.662 83.2421 101.608C83.8022 102.554 85.7464 105.87 87.5744 108.988C90.3956 113.78 90.9556 114.674 91.2515 114.841C91.7164 115.09 92.3399 115.017 92.6885 114.685C92.921 114.446 94.263 112.034 96.9151 107.065C97.5914 105.808 98.2042 104.706 98.2888 104.612C98.3627 104.519 98.5424 104.456 98.6692 104.477C98.796 104.498 101.385 104.591 104.417 104.685C110.482 104.872 110.419 104.882 110.799 104.269C111.19 103.635 111.106 103.375 109.669 100.922C108.929 99.6748 107.788 97.7102 107.112 96.5668C106.446 95.4234 105.654 94.0617 105.347 93.5523C104.502 92.1387 100.075 84.5818 99.7469 83.9997C99.5885 83.7294 99.5039 83.4696 99.5568 83.428C99.599 83.3864 99.9688 83.2201 100.36 83.0538C101.258 82.69 102.029 81.9831 102.42 81.1619C102.875 80.1952 102.864 79.3741 102.346 76.3388C101.86 73.4803 101.839 73.0853 102.103 72.6903C102.198 72.5448 103.044 71.4949 103.974 70.3723C105.939 68.0024 106.192 67.6385 106.362 66.9629C106.531 66.2561 106.436 64.9671 106.171 64.3954C106.055 64.1356 105.041 62.8154 103.931 61.4641C102.146 59.2709 101.913 58.9486 101.913 58.616C101.913 58.4081 102.103 57.036 102.346 55.5704C102.875 52.2753 102.875 51.5893 102.336 50.5914C102.135 50.2172 101.755 49.739 101.469 49.4895C100.941 49.0322 100.941 49.0322 96.4079 47.3067C95.5521 46.9844 94.7807 46.631 94.6856 46.5271C94.5165 46.3504 94.1045 45.3525 92.8893 42.2029C92.044 40.02 91.484 39.334 90.1209 38.8247C89.2967 38.5232 88.5993 38.5544 85.609 39.0325C84.1614 39.2612 82.7772 39.4483 82.513 39.4483C82.0164 39.4483 82.1432 39.5419 77.9061 36.1532C76.7755 35.2593 76.2894 35.0514 75.1799 35.0098C74.5142 34.9786 74.1444 35.0202 73.7534 35.1553ZM75.4335 37.5773C75.5814 37.6293 76.7649 38.5232 78.054 39.5627C79.3537 40.6021 80.6745 41.5688 80.9915 41.7248C81.8368 42.1198 82.9146 42.0782 86.2113 41.5377C89.0431 41.0699 89.2756 41.0699 89.7405 41.5584C89.8567 41.6832 90.3639 42.837 90.8605 44.1259C92.3293 47.8992 92.4984 48.2006 93.4388 48.7827C93.8509 49.0426 95.8691 49.8533 99.0918 51.0383C99.6202 51.2358 100.075 51.662 100.18 52.0778C100.244 52.3169 100.18 52.7638 99.5251 56.7034C99.2081 58.5952 99.2398 59.1773 99.6836 60.1336C99.7998 60.3935 100.772 61.672 101.86 62.9714C102.938 64.2811 103.847 65.4661 103.878 65.6012C103.995 66.069 103.815 66.5263 103.213 67.2539C99.5885 71.6405 99.4617 71.8276 99.3137 72.8878C99.2715 73.2412 99.3983 74.2911 99.7575 76.5467L100.254 79.7171L100.053 80.0809C99.7998 80.5487 99.5039 80.6942 96.7883 81.7025C93.946 82.7523 93.2169 83.1265 92.6568 83.7918C92.2131 84.3427 92.118 84.561 90.6598 88.3031C90.2688 89.3009 89.8567 90.2261 89.7299 90.3612C89.3178 90.7978 89.0326 90.7978 86.2641 90.3508C84.5629 90.0701 83.3267 89.9246 82.6293 89.9246C81.636 89.9142 81.5304 89.935 80.8858 90.2572C80.4843 90.4547 79.2691 91.3487 77.9272 92.4193C76.6804 93.4276 75.5392 94.2904 75.3912 94.3527C74.8629 94.5502 74.4931 94.3631 72.6757 92.9079C71.693 92.1283 70.5835 91.2447 70.2031 90.9433C68.7238 89.7583 68.1109 89.6751 64.6663 90.2157C63.3243 90.4339 61.9824 90.6418 61.6654 90.6938C61.2005 90.777 61.0208 90.7666 60.651 90.6003C60.1227 90.3716 60.1755 90.4755 58.9181 87.222C57.7769 84.3219 57.6818 84.114 57.143 83.5943C56.5512 83.0018 56.1391 82.8043 53.3602 81.7544C50.2325 80.5798 50.2219 80.5798 49.9895 80.1849C49.7253 79.7483 49.7464 79.478 50.2325 76.5675C50.6974 73.8026 50.7502 73.0334 50.5072 72.2226C50.317 71.5989 49.9155 71.0376 47.7705 68.4597C46.2595 66.6199 46.1855 66.5159 46.1433 66.0066L46.101 65.4765L47.612 63.6262C50 60.7261 50.3276 60.2792 50.5072 59.6971C50.7397 58.8967 50.708 58.1379 50.2853 55.6639C49.7676 52.5871 49.7359 52.0258 50.0212 51.6308C50.2642 51.2878 50.4544 51.2047 53.8357 49.9365C57.5656 48.5332 57.3332 48.8035 59.4042 43.3983C60.0804 41.6312 60.1755 41.4545 60.6722 41.257C61.0737 41.0803 60.9152 41.0699 65.1418 41.7351C67.477 42.1094 68.1004 42.099 68.988 41.704C69.3155 41.548 70.5835 40.6333 71.9888 39.5211C73.3202 38.4608 74.5037 37.5773 74.6093 37.5461C74.9475 37.463 75.1588 37.4734 75.4335 37.5773ZM54.0364 84.7273C55.4629 85.2678 55.3255 85.0807 56.4244 87.9392C57.946 91.8684 58.1785 92.253 59.5204 92.8975C60.165 93.2093 60.2918 93.2405 61.2322 93.2301C61.7922 93.2197 62.9651 93.095 63.8738 92.9391C67.2339 92.3777 67.5404 92.3362 67.9207 92.5025C68.1004 92.5856 68.3751 92.7416 68.5125 92.8559L68.7661 93.0534L68.2377 93.9785C67.9419 94.4879 66.1245 97.5958 64.1908 100.881C62.2571 104.165 60.1333 107.793 59.457 108.936C58.7913 110.08 58.2313 111.026 58.2207 111.046C58.189 111.078 57.5022 109.83 54.998 105.225C54.0575 103.469 53.3813 102.346 53.1805 102.18C52.8001 101.868 52.7579 101.868 46.8089 102.076C44.5477 102.149 42.6775 102.201 42.6458 102.18C42.6035 102.128 42.8994 101.608 46.418 95.6313C47.369 94.0201 49.3238 90.6938 51.4688 87.0245C52.6628 84.9872 53.0749 84.3635 53.2017 84.4155C53.2862 84.4466 53.6666 84.5922 54.0364 84.7273ZM98.014 86.1618C98.4473 86.9102 99.1658 88.1263 99.6096 88.8748C100.624 90.5899 105.728 99.2902 106.679 100.922C107.08 101.608 107.397 102.18 107.376 102.19C107.365 102.201 105.157 102.149 102.473 102.055C99.7892 101.972 97.4223 101.93 97.2216 101.962C96.7461 102.055 96.5453 102.315 95.626 104.051C95.2351 104.789 94.6116 105.943 94.2524 106.598C93.8931 107.252 93.2063 108.531 92.7202 109.435C92.2342 110.34 91.801 111.036 91.7587 110.995C91.7164 110.953 90.8077 109.415 89.7405 107.585C88.6627 105.756 87.1623 103.178 86.3909 101.868C85.609 100.548 84.3516 98.3962 83.5803 97.0865C82.8089 95.7664 81.9847 94.3631 81.7417 93.9577C81.5092 93.5523 81.3085 93.1677 81.3085 93.1054C81.3085 92.9494 81.9319 92.5025 82.2594 92.4297C82.5236 92.3673 83.1893 92.4505 86.169 92.9494C87.0778 93.095 88.2506 93.2197 88.8107 93.2301C89.7088 93.2301 89.8779 93.2093 90.4379 92.9391C91.6319 92.3673 92.2131 91.567 93.0372 89.3217C93.872 87.0973 94.5482 85.4965 94.7596 85.3094C94.8864 85.1951 95.4253 84.9352 95.943 84.7377C97.0631 84.3011 96.8306 84.1452 98.014 86.1618Z" fill="#D28B4B"/>
<path d="M73.3813 45.7069C63.6496 46.445 55.6085 54.0434 54.5202 63.5129C54.33 65.1449 54.3194 66.9743 54.4885 67.5356C54.647 68.0554 55.0696 68.3672 55.6614 68.3672C56.6018 68.388 57.0561 67.7123 56.9399 66.4962C56.8025 64.989 57.278 61.9745 57.9543 60.0827C58.3664 58.9497 59.3808 56.9539 60.0464 56.008C62.762 52.0684 66.9252 49.3866 71.7013 48.4823C72.6205 48.3056 73.3919 48.2432 74.9874 48.2224C77.3121 48.1809 77.4494 48.1497 77.7664 47.4844C78.0834 46.8296 77.7453 46.0084 77.0479 45.8109C76.5618 45.655 74.681 45.6134 73.3813 45.7069Z" fill="#D28B4B"/>
<path d="M82.3097 47.3895C81.6969 47.6493 81.4116 48.3666 81.6757 48.9798C81.8659 49.4268 81.9082 49.458 83.2184 50.1336C83.7785 50.4143 84.5287 50.8509 84.8879 51.0899C85.7544 51.6617 86.0608 51.7656 86.5257 51.6097C87.0752 51.433 87.4345 50.9652 87.4345 50.4247C87.4345 50.1856 87.3605 49.8842 87.2654 49.7594C86.7793 49.0838 83.4932 47.2335 82.7958 47.2439C82.7007 47.2543 82.4788 47.3167 82.3097 47.3895Z" fill="#D28B4B"/>
<path d="M89.1896 52.1399C88.5133 52.327 88.059 53.0962 88.2597 53.6887C88.3231 53.855 88.619 54.2916 88.9254 54.645C90.0983 56.0379 91.0176 57.5659 91.7572 59.3745C92.6871 61.651 92.983 63.2725 92.983 66.0063C92.9724 69.0935 92.5392 70.9645 91.1655 73.875C90.7112 74.8417 90.7323 75.2263 91.3029 75.7149C91.5882 75.9643 91.7678 76.0371 92.1271 76.0371C92.8139 76.0371 93.0886 75.7565 93.7332 74.4259C95.1491 71.4739 95.8676 67.6487 95.5823 64.4575C95.2125 60.2373 93.6803 56.4225 91.0599 53.2001C90.2145 52.1607 89.8447 51.9528 89.1896 52.1399Z" fill="#D28B4B"/>
<path d="M75.8443 55.8708C75.4956 56.0163 71.5543 58.6253 71.3958 58.8125C71.1845 59.0619 71.1211 59.7688 71.269 60.1326C71.343 60.2989 71.5543 60.538 71.7445 60.6523C72.3362 61.0057 72.6849 60.933 73.8472 60.1845C74.4284 59.8103 74.9145 59.5089 74.9356 59.5089C74.9462 59.5089 74.9673 62.3882 74.9673 65.9016V72.2943H73.5408C72.463 72.2943 72.0298 72.3359 71.7973 72.4502C71.2162 72.7412 70.9943 73.5416 71.3219 74.1653C71.66 74.8098 71.5332 74.789 76.3198 74.789H80.6943L81.0536 74.4356C81.3494 74.1445 81.4128 73.999 81.4128 73.656C81.4128 73.4169 81.3389 73.0843 81.2543 72.918C80.9796 72.3878 80.6309 72.2943 79.0354 72.2943H77.6089V64.6023C77.6089 56.2762 77.6195 56.4009 77.0489 56.0267C76.7213 55.8188 76.1507 55.7356 75.8443 55.8708Z" fill="#D28B4B"/>
<path d="M57.6402 73.491C56.1397 74.0835 55.8122 74.333 55.6959 74.9255C55.5586 75.6011 56.2665 76.4119 56.985 76.3807C57.5662 76.3599 59.9542 75.362 60.3135 74.9878C60.8418 74.4265 60.6199 73.3559 59.912 73.0648C59.3625 72.8465 59.1829 72.8777 57.6402 73.491Z" fill="#D28B4B"/>
<path d="M62.0544 78.199C61.748 78.3965 60.3109 79.8206 59.8883 80.3403C59.455 80.8912 59.6452 81.7955 60.2792 82.1178C60.4483 82.2009 60.7864 82.2737 61.0294 82.2737C61.4521 82.2737 61.5261 82.2217 62.6355 81.1511C63.2695 80.5378 63.8612 79.8829 63.9458 79.6958C64.1043 79.332 64.0514 78.8019 63.8401 78.5316C63.4386 78.0015 62.5933 77.856 62.0544 78.199Z" fill="#D28B4B"/>
<path d="M84.1638 78.0844C83.8679 78.1884 83.5404 78.5626 83.4241 78.9056C83.2234 79.5085 83.4241 79.8515 84.7449 81.1196C85.9178 82.2526 85.9495 82.2734 86.4356 82.2734C86.7103 82.2734 87.0379 82.2007 87.1858 82.1071C87.693 81.7745 87.9149 80.9949 87.6401 80.4752C87.4605 80.1425 85.6431 78.3339 85.305 78.1572C85.0197 78.0116 84.4702 77.9805 84.1638 78.0844Z" fill="#D28B4B"/>
<path d="M66.9879 81.4232C66.8188 81.5271 66.6181 81.735 66.5441 81.8701C66.1215 82.7121 65.4241 84.448 65.3818 84.7598C65.2867 85.5186 66.0792 86.2255 66.8717 86.08C67.5374 85.9552 67.7381 85.6434 68.6997 83.3254C69.0272 82.525 68.985 82.0572 68.5412 81.6207C68.1291 81.2257 67.4528 81.1321 66.9879 81.4232Z" fill="#D28B4B"/>
<path d="M78.7912 81.5475C78.0832 81.9737 78.0726 82.5246 78.7806 84.2397C79.3934 85.7677 79.7844 86.2251 80.4184 86.2251C81.1369 86.2251 81.7286 85.6638 81.7286 84.9777C81.7286 84.6451 81.232 83.2834 80.7143 82.2128C80.3127 81.3812 79.5202 81.1109 78.7912 81.5475Z" fill="#D28B4B"/>
<path d="M72.9388 82.7221C72.4739 83.1067 72.4316 83.3146 72.4316 84.9777C72.4316 86.672 72.5056 86.9839 73.0022 87.3061C73.3721 87.5452 74.1328 87.5244 74.4604 87.2645C74.9253 86.9111 74.9887 86.5889 74.9465 84.7698L74.9148 83.0859L74.5661 82.7844C74.1223 82.3894 73.3721 82.3583 72.9388 82.7221Z" fill="#D28B4B"/>
</svg>
