<svg width="150" height="150" viewBox="0 0 150 150" fill="none" xmlns="http://www.w3.org/2000/svg">
<circle cx="75" cy="75" r="73.5" stroke="#D28B4B" stroke-width="3"/>
<path d="M55.6452 52C61.1186 52.0072 66.366 54.4328 70.2363 58.7445C74.1066 63.0563 76.2838 68.9022 76.2903 75V85.0625H112.419V80.75C112.419 80.3688 112.555 80.0031 112.797 79.7335C113.039 79.464 113.367 79.3125 113.71 79.3125C114.052 79.3125 114.38 79.464 114.622 79.7335C114.864 80.0031 115 80.3688 115 80.75V96.5625C115 96.9437 114.864 97.3094 114.622 97.579C114.38 97.8485 114.052 98 113.71 98H55.6452C50.1697 98 44.9185 95.5768 41.0468 91.2635C37.1751 86.9501 35 81.1 35 75C35 68.9 37.1751 63.0499 41.0468 58.7365C44.9185 54.4232 50.1697 52 55.6452 52ZM112.419 87.9375H108.548V90.8125C108.548 91.1937 108.412 91.5594 108.17 91.829C107.928 92.0985 107.6 92.25 107.258 92.25C106.916 92.25 106.588 92.0985 106.346 91.829C106.104 91.5594 105.968 91.1937 105.968 90.8125V87.9375H102.097V89.375C102.097 89.7562 101.961 90.1219 101.719 90.3915C101.477 90.661 101.149 90.8125 100.806 90.8125C100.464 90.8125 100.136 90.661 99.8941 90.3915C99.6521 90.1219 99.5161 89.7562 99.5161 89.375V87.9375H95.6452V90.8125C95.6452 91.1937 95.5092 91.5594 95.2672 91.829C95.0253 92.0985 94.6971 92.25 94.3548 92.25C94.0126 92.25 93.6844 92.0985 93.4424 91.829C93.2005 91.5594 93.0645 91.1937 93.0645 90.8125V87.9375H89.1936V89.375C89.1936 89.7562 89.0576 90.1219 88.8156 90.3915C88.5736 90.661 88.2454 90.8125 87.9032 90.8125C87.561 90.8125 87.2328 90.661 86.9908 90.3915C86.7488 90.1219 86.6129 89.7562 86.6129 89.375V87.9375H82.7419V90.8125C82.7419 91.1937 82.606 91.5594 82.364 91.829C82.122 92.0985 81.7938 92.25 81.4516 92.25C81.1094 92.25 80.7812 92.0985 80.5392 91.829C80.2972 91.5594 80.1613 91.1937 80.1613 90.8125V87.9375H76.2903V95.125H112.419V87.9375ZM55.6452 95.125H73.7097V75C73.7097 71.0197 72.6502 67.1287 70.6653 63.8191C68.6803 60.5096 65.859 57.9301 62.5582 56.4069C59.2573 54.8837 55.6251 54.4852 52.1209 55.2617C48.6168 56.0382 45.398 57.9549 42.8716 60.7695C40.3453 63.584 38.6248 67.1699 37.9277 71.0738C37.2307 74.9777 37.5885 79.0241 38.9557 82.7015C40.323 86.3789 42.6384 89.522 45.6091 91.7333C48.5798 93.9447 52.0723 95.125 55.6452 95.125Z" fill="#D28B4B"/>
<path d="M55.9678 63.5C57.9456 63.5 59.879 64.1745 61.5235 65.4381C63.168 66.7017 64.4497 68.4978 65.2066 70.5991C65.9634 72.7005 66.1615 75.0128 65.7756 77.2435C65.3898 79.4743 64.4374 81.5234 63.0388 83.1317C61.6403 84.74 59.8585 85.8353 57.9187 86.279C55.9789 86.7228 53.9682 86.495 52.1409 85.6246C50.3137 84.7542 48.7519 83.2802 47.6531 81.3891C46.5543 79.4979 45.9678 77.2745 45.9678 75C45.9708 71.9511 47.0253 69.028 48.9 66.8721C50.7747 64.7161 53.3165 63.5034 55.9678 63.5ZM55.9678 83.625C57.4511 83.625 58.9012 83.1192 60.1345 82.1714C61.3679 81.2237 62.3292 79.8767 62.8969 78.3006C63.4645 76.7246 63.613 74.9904 63.3237 73.3173C63.0343 71.6443 62.32 70.1074 61.2711 68.9012C60.2222 67.695 58.8858 66.8735 57.4309 66.5407C55.9761 66.2079 54.4681 66.3787 53.0976 67.0315C51.7272 67.6843 50.5559 68.7898 49.7317 70.2082C48.9076 71.6266 48.4678 73.2941 48.4678 75C48.4698 77.2868 49.2606 79.4793 50.6667 81.0963C52.0728 82.7133 53.9793 83.6227 55.9678 83.625Z" fill="#D28B4B"/>
<path d="M57.2178 89.375H64.7178C65.0493 89.375 65.3672 89.5204 65.6017 89.7792C65.8361 90.038 65.9678 90.389 65.9678 90.755C65.9678 91.121 65.8361 91.472 65.6017 91.7308C65.3672 91.9896 65.0493 92.135 64.7178 92.135H57.2178C56.8863 92.135 56.5683 91.9896 56.3339 91.7308C56.0995 91.472 55.9678 91.121 55.9678 90.755C55.9678 90.389 56.0995 90.038 56.3339 89.7792C56.5683 89.5204 56.8863 89.375 57.2178 89.375Z" fill="#D28B4B"/>
<path d="M68.9067 89.375H70.0178C70.3125 89.375 70.5951 89.5204 70.8035 89.7792C71.0118 90.038 71.1289 90.389 71.1289 90.755C71.1289 91.121 71.0118 91.472 70.8035 91.7308C70.5951 91.9896 70.3125 92.135 70.0178 92.135H68.9067C68.612 92.135 68.3294 91.9896 68.121 91.7308C67.9126 91.472 67.7956 91.121 67.7956 90.755C67.7956 90.389 67.9126 90.038 68.121 89.7792C68.3294 89.5204 68.612 89.375 68.9067 89.375Z" fill="#D28B4B"/>
</svg>
