<svg width="16" height="15" viewBox="0 0 16 15" fill="none" xmlns="http://www.w3.org/2000/svg">
<path fill-rule="evenodd" clip-rule="evenodd" d="M8.59913 1.03833C8.48681 0.810796 8.25507 0.666748 8.00132 0.666748C7.74758 0.666748 7.51583 0.810796 7.40352 1.03833L5.49848 4.89773L1.23824 5.52042C0.987196 5.55712 0.778743 5.73312 0.700491 5.97446C0.622239 6.2158 0.687754 6.48063 0.8695 6.65765L3.95164 9.65966L3.22425 13.9007C3.18135 14.1508 3.28418 14.4036 3.4895 14.5528C3.69482 14.7019 3.96701 14.7216 4.19162 14.6035L8.00132 12.6L11.811 14.6035C12.0356 14.7216 12.3078 14.7019 12.5131 14.5528C12.7185 14.4036 12.8213 14.1508 12.7784 13.9007L12.051 9.65966L15.1331 6.65765C15.3149 6.48063 15.3804 6.2158 15.3022 5.97446C15.2239 5.73312 15.0154 5.55712 14.7644 5.52042L10.5042 4.89773L8.59913 1.03833Z" fill="#D28B4B"/>
</svg>
